HIERARCHY
ROOT hip
{
	OFFSET 0.000000 0.000000 0.000000 
	CHANNELS 6 Xposition Yposition Zposition Xrotation Zrotation Yrotation
	JOINT abdomen
	{
		OFFSET 0.000000 3.402643 0.000000 
		CHANNELS 3 Xrotation Zrotation Yrotation
		JOINT chest
		{
			OFFSET 0.000000 8.438565 -0.680529 
			CHANNELS 3 Xrotation Zrotation Yrotation
			JOINT neck
			{
				OFFSET 0.000000 10.207942 -0.272212 
				CHANNELS 3 Xrotation Zrotation Yrotation
				JOINT head
				{
					OFFSET 0.000000 3.130431 0.000000 
					CHANNELS 3 Xrotation Zrotation Yrotation
					End Site
					{
						OFFSET 0.000000 3.130435 0.000000 
					}
				}
			}
			JOINT lCollar
			{
				OFFSET 3.470700 6.669187 -0.816635 
				CHANNELS 3 Yrotation Zrotation Xrotation
				JOINT lShldr
				{
					OFFSET 3.198488 0.000000 0.000000 
					CHANNELS 3 Zrotation Yrotation Xrotation
					JOINT lForeArm
					{
						OFFSET 10.139888 0.000000 0.000000 
						CHANNELS 3 Yrotation Zrotation Xrotation
						JOINT lHand
						{
							OFFSET 8.370511 0.000000 0.000000 
							CHANNELS 3 Zrotation Yrotation Xrotation
							End Site
							{
								OFFSET 4.083176 0.000000 0.000000 
							}
						}
					}
				}
			}
			JOINT rCollar
			{
				OFFSET -3.470700 6.669187 -0.816635 
				CHANNELS 3 Yrotation Zrotation Xrotation
				JOINT rShldr
				{
					OFFSET -3.198488 0.000000 0.000000 
					CHANNELS 3 Zrotation Yrotation Xrotation
					JOINT rForeArm
					{
						OFFSET -10.139888 0.000000 0.000000 
						CHANNELS 3 Yrotation Zrotation Xrotation
						JOINT rHand
						{
							OFFSET -8.370511 0.000000 0.000000 
							CHANNELS 3 Zrotation Yrotation Xrotation
							End Site
							{
								OFFSET -4.083176 0.000000 0.000000 
							}
						}
					}
				}
			}
		}
	}
	JOINT lThigh
	{
		OFFSET 5.308129 -1.633274 1.361059 
		CHANNELS 3 Xrotation Zrotation Yrotation
		JOINT lShin
		{
			OFFSET -2.041588 -20.007561 0.000000 
			CHANNELS 3 Xrotation Zrotation Yrotation
			JOINT lFoot
			{
				OFFSET 0.000000 -19.190928 -1.224953 
				CHANNELS 3 Xrotation Yrotation Zrotation
				End Site
				{
					OFFSET 0.000000 -2.449906 4.627600 
				}
			}
		}
	}
	JOINT rThigh
	{
		OFFSET -5.308129 -1.633274 1.361059 
		CHANNELS 3 Xrotation Zrotation Yrotation
		JOINT rShin
		{
			OFFSET 2.041588 -20.007561 0.000000 
			CHANNELS 3 Xrotation Zrotation Yrotation
			JOINT rFoot
			{
				OFFSET 0.000000 -19.190928 -1.224953 
				CHANNELS 3 Xrotation Yrotation Zrotation
				End Site
				{
					OFFSET 0.000000 -2.449906 4.627600 
				}
			}
		}
	}
}
MOTION
Frames: 13
Frame Time: 0.011111
12.503737 52.705021 -0.102849 4.260302 5.502715 -52.206940 26.570559 3.581212 0.195917 -20.559389 0.352409 -0.485827 -15.920732 -4.123288 -0.406638 16.666870 11.947634 -0.641803 2.424333 -4.683778 1.783845 -66.449257 -40.066063 19.315392 -36.118446 3.252199 3.077690 8.524705 12.647240 -89.065811 -2.738486 -1.140572 2.095526 67.859550 28.802412 20.278393 83.279335 -4.512598 24.787926 -8.534408 -12.637552 107.152206 -3.289408 8.639021 -1.773273 19.065239 -5.799555 -3.403914 -40.024265 16.585709 11.035701 -16.168411 -5.439528 17.460981 26.565367 5.515441 4.405353 -28.853321 -16.229511 -5.509901 
12.456222 52.704720 -0.150365 4.249978 5.738460 -52.376179 26.650843 3.454215 -0.020943 -20.452059 0.401164 -0.534955 -15.904427 -3.947769 -0.326277 16.869040 11.519338 -0.443380 2.424333 -4.683778 1.783845 -66.304413 -40.283039 21.509188 -36.457664 3.386628 3.193387 8.524705 12.647240 -87.093147 -2.738486 -1.140572 2.095526 67.794533 28.578917 21.370052 84.010490 -3.909050 25.437275 -8.534408 -12.637552 106.927597 -3.348007 8.560831 -1.608574 18.909742 -5.809401 -3.371821 -39.977318 16.631689 11.039821 -16.510515 -5.478305 17.424160 26.730890 5.482494 4.422767 -28.642582 -16.055483 -5.359194 
12.403293 52.703217 -0.195775 4.225047 5.862735 -52.574078 26.860588 3.451133 -0.200177 -20.413046 0.429879 -0.584063 -15.920138 -3.919818 -0.190207 17.189835 11.303823 -0.160973 2.424333 -4.683778 1.783845 -66.248711 -40.459652 23.431622 -36.817928 3.532653 3.304774 8.524705 12.647240 -85.452522 -2.738486 -1.140572 2.095526 67.638748 28.308187 22.551565 84.633606 -3.316317 26.093973 -8.534408 -12.637552 106.615097 -3.364806 8.545774 -1.511024 18.861792 -5.796580 -3.384973 -40.077057 16.572468 11.071560 -16.683983 -5.468745 17.496122 26.812387 5.473319 4.427770 -28.509054 -15.970642 -5.273060 
12.341644 52.701408 -0.245094 4.355971 6.043530 -53.031563 26.880457 3.373181 -0.142336 -20.383875 0.489310 -0.555647 -15.787807 -3.842883 -0.073043 17.499834 11.079057 0.107256 2.424333 -4.683778 1.783845 -66.210594 -40.538345 25.501005 -37.278423 3.716581 3.462704 8.524705 12.647240 -83.704483 -2.738486 -1.140572 2.095526 67.603081 28.054857 23.473618 85.110985 -2.785348 26.686625 -8.534408 -12.637552 106.038918 -3.493862 8.657660 -1.330253 18.827528 -5.810888 -3.364077 -40.467251 16.436525 11.214354 -17.038612 -5.283165 17.652122 26.901779 5.473468 4.445375 -28.251865 -15.828282 -5.111665 
12.261046 52.693897 -0.326893 4.702162 6.549470 -54.202908 26.443268 2.886390 0.203818 -20.189262 0.825440 -0.412582 -15.798002 -3.650340 0.107174 18.002644 10.629253 0.484647 2.424333 -4.683778 1.783845 -66.215958 -40.753147 27.157736 -37.649296 3.857759 3.579539 8.524705 12.647240 -82.151749 -2.738486 -1.140572 2.095526 67.451416 27.959858 24.513300 85.455925 -2.354680 27.235161 -8.534408 -12.637552 105.492043 -3.941772 8.791598 -0.796575 18.851242 -5.799775 -3.365124 -41.249622 16.340918 11.581962 -17.965900 -4.961171 18.094851 26.926916 5.500909 4.444303 -27.589455 -15.510873 -4.737056 
12.211127 52.691486 -0.407188 4.777897 6.622639 -54.620827 26.751711 2.829565 0.098126 -20.257935 0.971088 -0.435507 -15.740133 -3.438161 0.244996 18.440388 10.105711 0.799083 2.424333 -4.683778 1.783845 -66.200333 -40.929188 28.514685 -38.080765 4.023249 3.728223 8.524705 12.647240 -80.745491 -2.738486 -1.140572 2.095526 67.258186 27.787424 25.634878 85.729904 -1.962323 27.777203 -8.534408 -12.637552 105.316261 -4.011105 8.930858 -0.556692 18.919344 -5.809431 -3.392156 -41.431541 16.398834 11.726550 -18.115416 -4.756855 18.086748 26.936056 5.505382 4.446164 -27.178005 -15.375811 -4.525246 
12.160904 52.691792 -0.437562 5.004675 6.788173 -54.874386 26.713707 3.057494 0.040866 -20.150248 0.854013 -0.480799 -15.657682 -3.346886 0.313548 18.859068 9.787119 0.970526 2.424333 -4.683778 1.783845 -66.313736 -41.054527 28.982573 -38.442688 4.161067 3.848383 8.524705 12.647240 -80.296280 -2.738486 -1.140572 2.095526 67.306465 27.718206 26.535061 85.910599 -1.675760 28.269785 -8.534408 -12.637552 105.003761 -4.323400 9.077200 -0.781397 19.034710 -5.799199 -3.401227 -41.978794 16.319290 12.006135 -18.427505 -4.589843 17.918602 26.909967 5.483086 4.448349 -26.842094 -15.169184 -4.323004 
12.120606 52.686977 -0.481168 5.145663 6.832232 -55.079670 26.939093 3.279881 -0.046202 -20.179277 0.726088 -0.528140 -15.611920 -3.153404 0.387169 19.366169 9.451387 1.167720 2.424333 -4.683778 1.783845 -66.463509 -41.423531 28.562464 -38.503235 4.186303 3.868875 8.524705 12.647240 -80.774796 -2.738486 -1.140572 2.095526 67.486649 27.754118 27.254255 86.031052 -1.477678 28.705570 -8.534408 -12.637552 104.525253 -4.530325 9.256069 -0.857286 19.187082 -5.800781 -3.424369 -42.367435 16.106449 12.103268 -18.546078 -4.405478 17.902981 26.866884 5.505370 4.420608 -26.698690 -15.016977 -4.204713 
12.077904 52.679459 -0.530186 5.336864 6.842845 -55.308247 27.176542 3.478741 -0.029511 -20.257280 0.666459 -0.547693 -15.458675 -2.993994 0.481525 19.795477 9.134206 1.383010 2.424333 -4.683778 1.783845 -66.554855 -41.851971 28.792057 -38.533394 4.199196 3.884013 8.524705 12.647240 -80.833382 -2.738486 -1.140572 2.095526 67.292374 27.532873 28.102430 86.130463 -1.324441 29.186680 -8.534408 -12.637552 104.261581 -4.733282 9.535751 -0.390870 19.373184 -5.791064 -3.449368 -42.101280 16.179747 12.008581 -18.627668 -4.141273 17.888985 26.799074 5.491213 4.430807 -26.665279 -14.802665 -4.133551 
12.025877 52.669834 -0.578303 5.490873 6.968427 -55.625515 27.303118 3.573858 -0.068362 -20.247553 0.685761 -0.567427 -15.415030 -2.958338 0.610064 20.435339 8.892556 1.651907 2.424333 -4.683778 1.783845 -66.696571 -42.279678 28.947968 -38.543148 4.198399 3.885018 8.524705 12.647240 -80.891983 -2.738486 -1.140572 2.095526 66.938850 27.314352 29.042645 86.203735 -1.262216 29.661402 -8.534408 -12.637552 103.919777 -4.960004 9.724969 -0.025263 19.536417 -5.790577 -3.464285 -42.043907 16.245008 11.992476 -18.831249 -3.946151 17.974785 26.767078 5.500587 4.438989 -26.532795 -14.604107 -3.997697 
11.974152 52.661415 -0.621608 5.596924 7.066751 -55.875622 27.486605 3.734632 -0.227156 -20.188768 0.597412 -0.633734 -15.349703 -2.772564 0.695276 20.968597 8.511496 1.855346 2.424333 -4.683778 1.783845 -66.690414 -42.797447 28.902105 -38.513439 4.193149 3.875941 8.524705 12.647240 -80.716194 -2.738486 -1.140572 2.095526 67.231972 27.504622 29.535872 86.248077 -1.274808 29.993610 -8.534408 -12.637552 103.089706 -5.113522 9.846832 0.053182 19.607569 -5.791153 -3.470528 -42.266857 16.191433 12.120122 -19.007587 -3.790029 17.977665 26.837191 5.500727 4.436378 -26.413588 -14.367631 -3.874604 
11.927539 52.658108 -0.654087 5.683759 7.160006 -56.096317 27.709148 3.951150 -0.411260 -20.159300 0.518462 -0.710390 -15.287265 -2.803635 0.840501 21.486628 8.420373 2.168535 2.424333 -4.683778 1.783845 -66.757179 -43.402061 28.558275 -38.432938 4.161856 3.847385 8.524705 12.647240 -80.589249 -2.738486 -1.140572 2.095526 67.929642 27.951374 29.559324 86.288277 -1.321578 30.274708 -8.534408 -12.637552 101.663925 -5.152475 9.944330 -0.024424 19.478355 -5.780735 -3.447776 -42.541588 16.217049 12.282888 -19.249521 -3.673440 17.815420 26.997921 5.496156 4.439699 -26.247196 -14.024081 -3.683137 
11.878220 52.653896 -0.679950 5.441588 7.418990 -56.463055 27.962017 3.697866 -0.665619 -20.139801 0.537667 -0.749554 -15.195472 -2.861423 1.000417 21.923233 8.293298 2.445935 2.424333 -4.683778 1.783845 -66.946274 -44.053719 27.576313 -38.221672 4.080445 3.776590 8.524705 12.647240 -81.263077 -2.738486 -1.140572 2.095526 67.214645 27.622133 31.019547 86.369095 -1.464761 30.755703 -8.534408 -12.637552 101.605324 -4.960663 9.638269 0.071587 19.231020 -5.789947 -3.427178 -42.740238 16.258190 12.416661 -19.563040 -3.926853 17.596506 27.230427 5.471710 4.494125 -25.877119 -13.600642 -3.408238 
